# xmcd CD database file
#
# Track frame offsets:
#	150
#	22804
#	35078
#	57284
#	72981
#	95458
#	109102
#	120376
#	143291
#	165068
#	181150
#	199652
#	218959
#	239301
#	252362
#	267897
#	285232
#	302666
#	319673
#	338617
#
# Disc length: 4752 seconds
#
# Revision: 1
# Processed by: cddbd v1.5.2PL0 Copyright (c) Steve Scherf et al.
# Submitted via: CDex 1.51
#
DISCID=07128e14
DTITLE=Various Artist - ZM-POPBOX-3-DISC-3
DYEAR=1900
DGENRE=Blues
TTITLE0=Eagles The - Hotel California
TTITLE1=Ellie Goulding - How Long Will I Love You
TTITLE2=Duke Dumont Ft Jax Jones - I Got U (duet version)
TTITLE3=Sonny and Cher - I Got You Babe
TTITLE4=Whitney Houston - I Have Nothing
TTITLE5=Lion King - I Just Can't Wait To Be King
TTITLE6=Jungle Book - I Wanna Be Like You
TTITLE7=Whitney Houston - I Wanna Dance With Somebody (who loves me)
TTITLE8=Whitney Houston - I Will Always Love You
TTITLE9=Rita Ora - I Will Never Let You Down
TTITLE10=Vanilla Ice - Ice Ice Baby
TTITLE11=Kenny Rogers and Dolly Parton - Islands In The Stream
TTITLE12=Will.i.am Ft Cody Wise - It's My Birthday
TTITLE13=Dolly Parton - Jolene
TTITLE14=Vamps The - Last Night
TTITLE15=Beatles The - Let It Be
TTITLE16=Frozen - Let It Go
TTITLE17=Gary Barlow - Let Me Go
TTITLE18=Bon Jovi - Livin' On A Prayer
TTITLE19=John Newman - Love Me Again
EXTD=
EXTT0=
EXTT1=
EXTT2=
EXTT3=
EXTT4=
EXTT5=
EXTT6=
EXTT7=
EXTT8=
EXTT9=
EXTT10=
EXTT11=
EXTT12=
EXTT13=
EXTT14=
EXTT15=
EXTT16=
EXTT17=
EXTT18=
EXTT19=
PLAYORDER=
